<svg width="54" height="165" viewBox="0 0 54 165" fill="none" xmlns="http://www.w3.org/2000/svg">
<circle cx="49" cy="5" r="5" transform="rotate(90 49 5)" fill="white"/>
<circle cx="49" cy="27" r="5" transform="rotate(90 49 27)" fill="white"/>
<circle cx="49" cy="49" r="5" transform="rotate(90 49 49)" fill="white"/>
<circle cx="49" cy="71" r="5" transform="rotate(90 49 71)" fill="white"/>
<circle cx="49" cy="93" r="5" transform="rotate(90 49 93)" fill="white"/>
<circle cx="49" cy="115" r="5" transform="rotate(90 49 115)" fill="white"/>
<circle cx="49" cy="137" r="5" transform="rotate(90 49 137)" fill="white"/>
<circle cx="49" cy="159" r="5" transform="rotate(90 49 159)" fill="white"/>
<circle cx="27" cy="5" r="5" transform="rotate(90 27 5)" fill="white"/>
<circle cx="27" cy="27" r="5" transform="rotate(90 27 27)" fill="white"/>
<circle cx="27" cy="49" r="5" transform="rotate(90 27 49)" fill="white"/>
<circle cx="27" cy="71" r="5" transform="rotate(90 27 71)" fill="white"/>
<circle cx="27" cy="93" r="5" transform="rotate(90 27 93)" fill="white"/>
<circle cx="27" cy="115" r="5" transform="rotate(90 27 115)" fill="white"/>
<circle cx="27" cy="137" r="5" transform="rotate(90 27 137)" fill="white"/>
<circle cx="27" cy="159" r="5" transform="rotate(90 27 159)" fill="white"/>
<circle cx="5" cy="5" r="5" transform="rotate(90 5 5)" fill="white"/>
<circle cx="5" cy="27" r="5" transform="rotate(90 5 27)" fill="white"/>
</svg>
