<svg width="55" height="186" viewBox="0 0 55 186" fill="none" xmlns="http://www.w3.org/2000/svg">
<circle cx="49.5596" cy="5" r="5" transform="rotate(90 49.5596 5)" fill="#0087CD"/>
<circle cx="49.5596" cy="27" r="5" transform="rotate(90 49.5596 27)" fill="#0087CD"/>
<circle cx="49.5596" cy="49" r="5" transform="rotate(90 49.5596 49)" fill="#0087CD"/>
<circle cx="49.5596" cy="71" r="5" transform="rotate(90 49.5596 71)" fill="#0087CD"/>
<circle cx="49.5596" cy="93" r="5" transform="rotate(90 49.5596 93)" fill="#0087CD"/>
<circle cx="49.5596" cy="115" r="5" transform="rotate(90 49.5596 115)" fill="#0087CD"/>
<circle cx="49.5596" cy="137" r="5" transform="rotate(90 49.5596 137)" fill="#0087CD"/>
<circle cx="49.5596" cy="159" r="5" transform="rotate(90 49.5596 159)" fill="#0087CD"/>
<circle cx="49.5596" cy="181" r="5" transform="rotate(90 49.5596 181)" fill="#0087CD"/>
<circle cx="27.5596" cy="5" r="5" transform="rotate(90 27.5596 5)" fill="#0087CD"/>
<circle cx="27.5596" cy="27" r="5" transform="rotate(90 27.5596 27)" fill="#0087CD"/>
<circle cx="27.5596" cy="49" r="5" transform="rotate(90 27.5596 49)" fill="#0087CD"/>
<circle cx="27.5596" cy="71" r="5" transform="rotate(90 27.5596 71)" fill="#0087CD"/>
<circle cx="27.5596" cy="93" r="5" transform="rotate(90 27.5596 93)" fill="#0087CD"/>
<circle cx="27.5596" cy="115" r="5" transform="rotate(90 27.5596 115)" fill="#0087CD"/>
<circle cx="27.5596" cy="137" r="5" transform="rotate(90 27.5596 137)" fill="#0087CD"/>
<circle cx="27.5596" cy="159" r="5" transform="rotate(90 27.5596 159)" fill="#0087CD"/>
<circle cx="27.5596" cy="181" r="5" transform="rotate(90 27.5596 181)" fill="#0087CD"/>
<circle cx="5.55957" cy="5" r="5" transform="rotate(90 5.55957 5)" fill="#0087CD"/>
<circle cx="5.55957" cy="27" r="5" transform="rotate(90 5.55957 27)" fill="#0087CD"/>
<circle cx="5.55957" cy="49" r="5" transform="rotate(90 5.55957 49)" fill="#0087CD"/>
<circle cx="5.55957" cy="71" r="5" transform="rotate(90 5.55957 71)" fill="#0087CD"/>
<circle cx="5.55957" cy="93" r="5" transform="rotate(90 5.55957 93)" fill="#0087CD"/>
<circle cx="5.55957" cy="115" r="5" transform="rotate(90 5.55957 115)" fill="#0087CD"/>
<circle cx="5.55957" cy="137" r="5" transform="rotate(90 5.55957 137)" fill="#0087CD"/>
<circle cx="5.55957" cy="159" r="5" transform="rotate(90 5.55957 159)" fill="#0087CD"/>
<circle cx="5.55957" cy="181" r="5" transform="rotate(90 5.55957 181)" fill="#0087CD"/>
</svg>
