<svg width="1256" height="866" viewBox="0 0 1256 866" fill="none" xmlns="http://www.w3.org/2000/svg">
<rect x="7.40039" y="39.3062" width="1222" height="827" rx="100" transform="rotate(-1.84324 7.40039 39.3062)" fill="#212121"/>
<path d="M52.9999 56C48.7479 50.8438 45.4397 46.8536 42.4999 44.011M67.9999 90C68.8542 94.9713 70.8739 101.054 70.905 107" stroke="#212121" stroke-width="6" stroke-linecap="round"/>
<rect x="9.40039" y="36.0005" width="1222" height="827" rx="100" fill="#0087CD"/>
<circle cx="81.5" cy="108.5" r="22.5" fill="white"/>
<path fill-rule="evenodd" clip-rule="evenodd" d="M70.7245 88.7432C70.8318 88.9762 70.9108 89.227 70.9563 89.4919C71.2154 90.9996 71.5698 92.538 71.9592 94.2283L71.9592 94.2283L71.9592 94.2284C72.196 95.2566 72.4458 96.3408 72.6949 97.5085C73.3235 100.455 73.8876 103.701 73.9047 106.984C73.9134 108.641 72.5772 109.991 70.9204 110C69.2636 110.009 67.9134 108.673 67.9048 107.016C67.8909 104.353 67.4296 101.585 66.827 98.7605C66.6252 97.8149 66.3985 96.8272 66.1702 95.833C65.9297 94.7851 65.6875 93.7301 65.4712 92.7097C67.0128 91.145 68.7817 89.805 70.7245 88.7432Z" fill="#212121"/>
<path d="M42.5 44.011C35.9565 37.6838 31.2382 37.0418 22.0002 41.8808C5.3577 50.5984 8.51168 67.674 22 93.4241C35.4884 119.174 43.3369 132.982 59.9793 124.264C68.6358 119.73 70.9387 113.445 70.9051 107" stroke="#212121" stroke-width="6" stroke-linecap="round"/>
</svg>
