<?xml version="1.0" encoding="UTF-8"?>
<svg id="Layer_2" data-name="Layer 2" xmlns="http://www.w3.org/2000/svg" viewBox="0 0 54.69 80">
  <defs>
    <style>
      .cls-1 {
        fill: #ee404a;
      }

      .cls-2 {
        fill: #ba3851;
      }

      .cls-3 {
        fill: none;
        stroke: #ba3851;
        stroke-linecap: round;
        stroke-linejoin: round;
        stroke-width: 2px;
      }
    </style>
  </defs>
  <g id="Layer_2-2" data-name="Layer 2">
    <g>
      <path class="cls-1" d="m53.66,23.41l-31.61,50.58c-.32.51-.68.98-1.08,1.39L1.21,63.04c.19-.54.46-1.08.78-1.58L33.6,10.87h.02c1.67,3.67,4.44,6.93,8.15,9.24,3.7,2.31,7.85,3.37,11.88,3.27v.02Z"/>
      <path class="cls-2" d="m20.96,75.38c-3.66,4.27-9,5.88-12.73,3.54l-4.63-2.89c-3.73-2.33-4.63-7.84-2.39-13l19.75,12.35Z"/>
      <path class="cls-2" d="m53.66,23.38c-4.04.11-8.18-.95-11.88-3.27-3.7-2.31-6.47-5.58-8.15-9.25L53.33.11c.62-.34,1.39.14,1.36.85l-1.03,22.42Z"/>
      <path class="cls-3" d="m12.75,63.93c.73-5.56,3.21-10.87,7-15,3.52-3.83,8.07-6.6,11.53-10.49,3.14-3.52,5.26-7.81,7.34-12.04"/>
    </g>
  </g>
</svg>