<?xml version="1.0" encoding="UTF-8"?>
<svg id="Layer_2" data-name="Layer 2" xmlns="http://www.w3.org/2000/svg" viewBox="0 0 56.47 100">
  <defs>
    <style>
      .cls-1 {
        fill: #f2f2f2;
      }
    </style>
  </defs>
  <g id="Layer_2-2" data-name="Layer 2">
    <path class="cls-1" d="m56.28,78.99L2.02.48C1.4-.42,0,.03,0,1.12l.02,17.15h4.4c.61,0,1.11.5,1.11,1.11s-.5,1.11-1.11,1.11H.02v4.07h4.4c.61,0,1.11.5,1.11,1.11s-.5,1.11-1.11,1.11H.03v4.07h4.39c.61,0,1.11.5,1.11,1.11s-.5,1.11-1.11,1.11H.04v4.07h4.38c.61,0,1.11.5,1.11,1.11s-.5,1.11-1.11,1.11H.04v4.07h4.37c.61,0,1.11.5,1.11,1.11s-.5,1.11-1.11,1.11H.05v4.07h4.37c.61,0,1.11.5,1.11,1.11s-.5,1.11-1.11,1.11H.06v4.07h4.36c.61,0,1.11.5,1.11,1.11s-.5,1.11-1.11,1.11H.07v4.07h4.35c.61,0,1.11.5,1.11,1.11s-.5,1.11-1.11,1.11H.07v4.07h4.34c.61,0,1.11.5,1.11,1.11s-.5,1.11-1.11,1.11H.08v4.07h4.34c.61,0,1.11.5,1.11,1.11s-.5,1.11-1.11,1.11H.09v4.07h4.33c.61,0,1.11.5,1.11,1.11s-.5,1.11-1.11,1.11H.1v4.07h4.32c.61,0,1.11.5,1.11,1.11s-.5,1.11-1.11,1.11H.1v9.21c.01.76.78,1.3,1.49,1.04l54.14-19.28c.69-.24.95-1.07.54-1.67Zm-41.74-3.01v-33.15c0-.66.87-.89,1.19-.32l15.76,27.63-16.95,5.84Z"/>
  </g>
</svg>