<?xml version="1.0" encoding="utf-8"?>
<!-- Generator: Adobe Illustrator 27.7.0, SVG Export Plug-In . SVG Version: 6.00 Build 0)  -->
<svg version="1.1" id="Layer_2_00000165925848786156801190000004617167529356477105_"
	 xmlns="http://www.w3.org/2000/svg" xmlns:xlink="http://www.w3.org/1999/xlink" x="0px" y="0px" viewBox="0 0 700 700"
	 style="enable-background:new 0 0 700 700;" xml:space="preserve">
<style type="text/css">
	.st0{fill:#0087CD;}
</style>
<circle class="st0" cx="539.3" cy="256.3" r="96.5"/>
<path class="st0" d="M701,700c-19.7-15.6-37.7-33.3-54.7-51.9c-31.2-34.2-47.7-83.5-41.4-129.5c6.8-49.4,41.5-88.4,75.5-122.2
	c20.7-20.5,50.6-40.3,60.9-68.3c3.8-10.3,4.2-23.1-3.7-30.8c-24.6-24.1-60.5,11.5-77.5,28.6c-36.9,37.2-80.4,68.6-135.2,63.8
	c-32.1-2.8-66.8-16.7-86.7-43c-52.3-69.5-65.5-162.4-81.8-245.4C354,89,342.6,79.3,330.2,78.9c-12.4-0.4-24.5,8.6-27.7,20.6
	c-6,22.7,3.1,50,7.1,72.5c11.3,63.7,33.1,128.9,33.9,194.9c0.1,12-0.4,24-1.8,36c-4.3,36.2-19.5,68.1-42.2,96.5
	c-46.7,58.1-114.6,90.8-177.5,127.6c-27.9,16.4-55.8,32.8-83.6,49.3C24,684.8-2,700-2,700"/>
</svg>
