<svg width="1442" height="202" viewBox="0 0 1442 202" fill="none" xmlns="http://www.w3.org/2000/svg">
<path d="M0 201V68.2256C42.4253 65.8875 134.391 71.9333 162.853 114.822C201.437 68.2256 368.299 19.1242 363.288 169.936C399.867 30.147 449.475 13.1118 517.121 17.6211C571.239 21.2285 608.486 64.2174 620.345 85.2609C640.389 64.0504 694.606 30.9486 751.129 68.2256C796.066 97.862 809.563 109.827 811.361 113.487C825.772 82.1567 866.007 32.7739 916.988 76.2423C981.628 131.356 954.57 -15.9482 1031.24 30.147C1092.57 67.0232 1121.26 138.705 1127.95 169.936C1130.12 129.519 1152.9 48.986 1226.66 50.1884C1300.42 51.3909 1321.87 112.15 1323.37 142.379C1338.9 105.469 1383.77 36.6858 1441.5 92V201L0 201Z" fill="white"/>
<path d="M155.994 138.262C117.195 93.7776 35.8319 79.433 0 77.8213V201.12H1441.44V91.924C1377.05 86.1217 1350.28 125.233 1344.95 145.515C1332.28 119.324 1289.55 66.9419 1219.95 66.9419C1150.35 66.9419 1137.29 132.218 1139.45 164.856C1124.46 132.218 1083.06 64.5243 1037.46 54.8538C991.861 45.1834 980.794 95.9534 980.961 122.547C964.462 107.639 920.864 77.8213 878.465 77.8213C836.067 77.8213 819.468 122.95 816.468 145.515C800.802 117.443 753.67 62.4291 690.473 66.9419C628.875 74.356 618.809 117.578 621.475 138.262C605.309 109.519 554.378 50.9051 479.981 46.3922C386.985 40.7511 373.485 124.159 358.486 164.856C329.987 108.444 292.988 85.4771 258.49 85.4771C223.991 85.4771 167.493 106.833 155.994 138.262Z" fill="#FCB813"/>
</svg>
