<?xml version="1.0" encoding="UTF-8"?>
<svg id="Layer_2" data-name="Layer 2" xmlns="http://www.w3.org/2000/svg" viewBox="0 0 80 65.12">
  <defs>
    <style>
      .cls-1 {
        fill: none;
        stroke: #fff;
        stroke-linecap: round;
        stroke-linejoin: round;
      }

      .cls-2 {
        fill: #f9d815;
      }

      .cls-3 {
        fill: #fcb813;
      }

      .cls-4 {
        fill: #e5a413;
      }
    </style>
  </defs>
  <g id="Layer_2-2" data-name="Layer 2">
    <g>
      <polygon class="cls-4" points="46.98 19.53 32.09 19.53 33.95 0 45.12 0 46.98 19.53"/>
      <path class="cls-3" d="m0,13.02v52.09h80V13.02H0Zm39.53,9.3c-6.16,0-11.16-1.25-11.16-2.79s5-2.79,11.16-2.79,11.16,1.25,11.16,2.79-5,2.79-11.16,2.79Z"/>
      <polygon class="cls-2" points="46.98 19.53 32.09 19.53 35.81 0 43.26 0 46.98 19.53"/>
      <line class="cls-1" x1="12.84" y1="32.7" x2="66.84" y2="32.7"/>
      <line class="cls-1" x1="12.84" y1="40.7" x2="66.84" y2="40.7"/>
      <line class="cls-1" x1="12.84" y1="48.7" x2="66.84" y2="48.7"/>
      <line class="cls-1" x1="12.84" y1="56.7" x2="66.84" y2="56.7"/>
    </g>
  </g>
</svg>