<?xml version="1.0" encoding="UTF-8"?>
<svg id="Layer_2" data-name="Layer 2" xmlns="http://www.w3.org/2000/svg" viewBox="0 0 65.52 82">
  <defs>
    <style>
      .cls-1 {
        fill: #f9d815;
      }

      .cls-2 {
        fill: #fcb813;
      }

      .cls-3 {
        fill: #e5a413;
      }

      .cls-4 {
        fill: none;
        stroke: #fcb813;
        stroke-miterlimit: 10;
        stroke-width: 2px;
      }
    </style>
  </defs>
  <g id="Layer_2-2" data-name="Layer 2">
    <g>
      <path class="cls-2" d="m48.63,53.29c-1.99-1.31-3.99-1.92-6.25-.63-5.74,4.1-11.48,4.92-17.22,2.46-2.25-1.12-4.1-3.39-4.79-6.03l7.17-16.23,1.89-4.28c.3,1.09.79,2.1,1.43,3.01,1.22,1.72,2.98,3.07,4.94,3.85,2.21.74,4.39,1.55,6.54,2.41l6.26,15.44Z"/>
      <path class="cls-1" d="m30.87,31.58c1.23,1.72,2.99,3.07,4.95,3.85,2.21.74,4.38,1.55,6.55,2.41l-3.01-7.42c-2.85.28-5.79.44-8.48,1.15Z"/>
      <path class="cls-3" d="m42.38,52.65c-5.74,4.1-11.48,4.92-17.22,2.46-2.24-1.12-4.1-3.39-4.79-6.03l-11.99,27.12h49.54l-9.29-22.91c-1.99-1.31-3.99-1.92-6.25-.63Z"/>
      <path class="cls-4" d="m24.89,4.2v22.4L1.14,78.75c-.48,1.06.32,2.25,1.51,2.25h60.21c1.18,0,1.98-1.16,1.52-2.22l-22.16-51.24V4.2c0-1.77-1.48-3.2-3.3-3.2h-10.73c-1.82,0-3.3,1.43-3.3,3.2Z"/>
    </g>
  </g>
</svg>