<svg width="55" height="166" viewBox="0 0 55 166" fill="none" xmlns="http://www.w3.org/2000/svg">
<circle cx="49.0596" cy="5.5" r="5" transform="rotate(90 49.0596 5.5)" fill="#EE404A"/>
<circle cx="49.0596" cy="27.5" r="5" transform="rotate(90 49.0596 27.5)" fill="#EE404A"/>
<circle cx="49.0596" cy="49.5" r="5" transform="rotate(90 49.0596 49.5)" fill="#EE404A"/>
<circle cx="49.0596" cy="71.5" r="5" transform="rotate(90 49.0596 71.5)" fill="#EE404A"/>
<circle cx="49.0596" cy="93.5" r="5" transform="rotate(90 49.0596 93.5)" fill="#EE404A"/>
<circle cx="49.0596" cy="115.5" r="5" transform="rotate(90 49.0596 115.5)" fill="#EE404A"/>
<circle cx="49.0596" cy="137.5" r="5" transform="rotate(90 49.0596 137.5)" fill="#EE404A"/>
<circle cx="49.0596" cy="159.5" r="5" transform="rotate(90 49.0596 159.5)" fill="#EE404A"/>
<circle cx="27.0596" cy="5.5" r="5" transform="rotate(90 27.0596 5.5)" fill="#EE404A"/>
<circle cx="27.0596" cy="27.5" r="5" transform="rotate(90 27.0596 27.5)" fill="#EE404A"/>
<circle cx="27.0596" cy="49.5" r="5" transform="rotate(90 27.0596 49.5)" fill="#EE404A"/>
<circle cx="27.0596" cy="71.5" r="5" transform="rotate(90 27.0596 71.5)" fill="#EE404A"/>
<circle cx="27.0596" cy="93.5" r="5" transform="rotate(90 27.0596 93.5)" fill="#EE404A"/>
<circle cx="27.0596" cy="115.5" r="5" transform="rotate(90 27.0596 115.5)" fill="#EE404A"/>
<circle cx="27.0596" cy="137.5" r="5" transform="rotate(90 27.0596 137.5)" fill="#EE404A"/>
<circle cx="27.0596" cy="159.5" r="5" transform="rotate(90 27.0596 159.5)" fill="#EE404A"/>
<circle cx="5.05957" cy="5.5" r="5" transform="rotate(90 5.05957 5.5)" fill="#EE404A"/>
<circle cx="5.05957" cy="27.5" r="5" transform="rotate(90 5.05957 27.5)" fill="#EE404A"/>
</svg>
