<svg width="1425" height="251" viewBox="0 0 1425 251" fill="none" xmlns="http://www.w3.org/2000/svg">
<path fill-rule="evenodd" clip-rule="evenodd" d="M1425 -0.000244141C1400.67 35.1806 1352.42 91.2534 1301.17 113.328C1258.35 131.772 1236.07 127.663 1203.65 121.684C1183.05 117.884 1158.35 113.328 1121.67 113.328C1084.61 113.328 1042.64 131.047 999.982 149.059C933.997 176.918 866.357 205.476 812.669 170.243C752.044 130.458 694.447 121.854 641.101 113.886C581.815 105.03 527.779 96.9584 480.669 47.7432C432.723 -2.34542 391.292 61.7455 353.202 120.667C328.776 158.451 305.725 194.11 283.211 196.168C253.824 198.855 228.959 183.855 197.942 165.144C168.141 147.167 132.66 125.763 82.0331 113.328C34.6971 101.701 10.842 110.248 0 124.024V239.656L1425 221.625V-0.000244141Z" fill="#0087CD"/>
<path fill-rule="evenodd" clip-rule="evenodd" d="M1195.17 125.244C1297.44 123.902 1395.85 83.4647 1425 54.7126V250.744H0V189.457C16.0098 166.636 48.3303 138.494 97.1689 140.744C129.404 142.228 157.951 149.559 187.427 157.129C227.445 167.406 269.175 178.123 324.169 175.244C359.726 173.382 392.094 145.944 424.526 118.453C479.201 72.1068 534.055 25.6083 604.669 101.244C673.214 174.663 724.868 176.991 787.566 179.817C827.77 181.629 872.516 183.645 929.169 204.744C989.347 227.155 1017.64 205.569 1052.1 179.268C1084.2 154.782 1121.64 126.208 1195.17 125.244Z" fill="#FCB813"/>
<path fill-rule="evenodd" clip-rule="evenodd" d="M1343.17 203.743C1380.98 207.408 1407.21 212.413 1425 217.524V250.743H0V227.259C9.85775 221.954 23.8518 217.349 42.6691 214.743C75.7048 210.169 124.239 215.798 181.511 222.441C236.925 228.868 300.519 236.243 366.169 236.243C431.369 236.243 479.276 231.115 528.295 225.868C579.646 220.371 632.218 214.743 707.169 214.743C796.212 214.743 882.669 222.686 950.486 228.916C994.246 232.936 1030.25 236.243 1054.17 236.243C1077.1 236.243 1107.6 230.095 1142.76 223.005C1201.12 211.238 1272.34 196.879 1343.17 203.743Z" fill="white"/>
</svg>
