<?xml version="1.0" encoding="UTF-8"?>
<svg id="Layer_2" data-name="Layer 2" xmlns="http://www.w3.org/2000/svg" viewBox="0 0 80 65.12">
  <defs>
    <style>
      .cls-1 {
        fill: none;
        stroke: #fff;
        stroke-linecap: round;
        stroke-linejoin: round;
      }

      .cls-2 {
        fill: #00aae5;
      }

      .cls-3 {
        fill: #007cb2;
      }

      .cls-4 {
        fill: #0087cd;
      }
    </style>
  </defs>
  <g id="Layer_2-2" data-name="Layer 2">
    <g>
      <polygon class="cls-3" points="46.98 19.53 32.09 19.53 33.95 0 45.12 0 46.98 19.53"/>
      <path class="cls-4" d="m0,13.02v52.09h80V13.02H0Zm39.53,9.3c-6.16,0-11.16-1.25-11.16-2.79s5-2.79,11.16-2.79,11.16,1.25,11.16,2.79-5,2.79-11.16,2.79Z"/>
      <polygon class="cls-2" points="46.98 19.53 32.09 19.53 35.81 0 43.26 0 46.98 19.53"/>
      <line class="cls-1" x1="12.99" y1="30.06" x2="66.99" y2="30.06"/>
      <line class="cls-1" x1="12.99" y1="38.06" x2="66.99" y2="38.06"/>
      <line class="cls-1" x1="12.99" y1="46.06" x2="66.99" y2="46.06"/>
      <line class="cls-1" x1="12.99" y1="54.06" x2="66.99" y2="54.06"/>
    </g>
  </g>
</svg>